<svg width="94" height="36" viewBox="0 0 94 36" fill="none" xmlns="http://www.w3.org/2000/svg">
    <path fill-rule="evenodd" clip-rule="evenodd"
          d="M10.8095 2C7.441 2 4.55017 4.39917 3.9294 7.70998L0.554396 25.71C-0.253334 30.0179 3.05153 34 7.4345 34H25.1905C28.559 34 31.4499 31.6008 32.0706 28.29L35.4456 10.29C36.2534 5.98212 32.9485 2 28.5655 2H10.8095ZM18 32C25.732 32 32 25.732 32 18C32 10.268 25.732 4 18 4C10.2681 4 4.00005 10.268 4.00005 18C4.00005 25.732 10.2681 32 18 32Z"
          fill="#272525"/>
    <path d="M44.807 0.227573H47.7801L48.2927 11.6439L52.8149 0.227573H55.993L48.7939 16.6852H46.2765L44.807 0.227573ZM42.8592 0.227573H46.0486L44.4197 13.0116L43.7818 16.6852H39.9886L42.8592 0.227573ZM54.626 0.227573H57.8383L54.9678 16.6852H51.1404L51.858 12.6838L54.626 0.227573Z"
          fill="#272525"/>
    <path d="M63.5456 0.227573L60.6751 16.6852H56.8705L59.7524 0.227573H63.5456Z" fill="#272525"/>
    <path d="M70.1187 12.2204C70.1718 11.9265 70.1756 11.6627 70.1301 11.4291C70.0845 11.1955 69.9934 10.9921 69.8567 10.8187C69.7276 10.6379 69.5567 10.4721 69.3441 10.3214C69.1391 10.1707 68.9112 10.0313 68.6606 9.90318C68.1063 9.63944 67.5861 9.34556 67.1001 9.02153C66.6141 8.68997 66.185 8.31696 65.8129 7.9025C65.4484 7.48805 65.1712 7.02085 64.9814 6.5009C64.7991 5.98094 64.727 5.38564 64.7649 4.71498C64.8105 3.96142 65.0041 3.29076 65.3459 2.70299C65.6876 2.10769 66.1356 1.61034 66.69 1.21096C67.2444 0.80404 67.8633 0.498852 68.5467 0.295392C69.2302 0.0843978 69.925 -0.0135639 70.6313 0.0015071C71.6489 0.0165781 72.5032 0.250179 73.1943 0.702311C73.8853 1.15444 74.4055 1.76482 74.7548 2.53344C75.1041 3.30207 75.2674 4.16112 75.2446 5.11059L71.4742 5.12189C71.4818 4.81294 71.4742 4.49645 71.4514 4.17242C71.4287 3.84839 71.3337 3.57711 71.1667 3.35858C71.0072 3.13252 70.7224 3.01572 70.3123 3.00818C69.9858 3.00065 69.6972 3.07977 69.4466 3.24555C69.196 3.41133 68.991 3.62986 68.8315 3.90114C68.6796 4.16488 68.5771 4.44747 68.524 4.74889C68.4784 5.00509 68.4974 5.2387 68.5809 5.44969C68.6644 5.66068 68.7897 5.85284 68.9568 6.02616C69.1239 6.19947 69.3099 6.35395 69.515 6.48959C69.7276 6.62523 69.9288 6.7458 70.1187 6.8513C70.7186 7.12258 71.2578 7.42776 71.7362 7.76686C72.2146 8.10596 72.6209 8.49027 72.955 8.9198C73.2968 9.34179 73.5474 9.82406 73.7069 10.3666C73.8739 10.9016 73.9347 11.512 73.8891 12.1978C73.8359 12.9664 73.6537 13.6483 73.3423 14.2436C73.031 14.8314 72.6209 15.3288 72.1121 15.7357C71.6033 16.1351 71.0224 16.4365 70.3693 16.6399C69.7162 16.8359 69.0138 16.9301 68.262 16.9225C67.4342 16.8999 66.6938 16.753 66.0407 16.4817C65.3952 16.2029 64.8523 15.8148 64.4118 15.3175C63.9714 14.8201 63.641 14.2361 63.4208 13.5654C63.2006 12.8873 63.0981 12.145 63.1132 11.3387L66.9406 11.35C66.9178 11.6816 66.9102 12.0018 66.9178 12.3108C66.9254 12.6197 66.9748 12.8948 67.0659 13.1359C67.157 13.3771 67.3127 13.5692 67.5329 13.7124C67.7608 13.848 68.0835 13.9158 68.5012 13.9158C68.8429 13.9158 69.1239 13.8405 69.3441 13.6898C69.5643 13.5315 69.7352 13.3243 69.8567 13.0681C69.9858 12.8044 70.0731 12.5218 70.1187 12.2204Z"
          fill="#272525"/>
    <path d="M81.4304 0.227573L78.5599 16.6852H74.7553L77.6372 0.227573H81.4304Z" fill="#272525"/>
    <path d="M88.0034 12.2204C88.0566 11.9265 88.0604 11.6627 88.0148 11.4291C87.9693 11.1955 87.8781 10.9921 87.7415 10.8187C87.6124 10.6379 87.4415 10.4721 87.2289 10.3214C87.0238 10.1707 86.796 10.0313 86.5454 9.90318C85.991 9.63944 85.4709 9.34556 84.9848 9.02153C84.4988 8.68997 84.0698 8.31696 83.6977 7.9025C83.3331 7.48805 83.056 7.02085 82.8661 6.5009C82.6839 5.98094 82.6117 5.38564 82.6497 4.71498C82.6953 3.96142 82.8889 3.29076 83.2306 2.70299C83.5724 2.10769 84.0204 1.61034 84.5748 1.21096C85.1291 0.80404 85.748 0.498852 86.4315 0.295392C87.115 0.0843978 87.8098 -0.0135639 88.516 0.0015071C89.5336 0.0165781 90.388 0.250179 91.079 0.702311C91.7701 1.15444 92.2903 1.76482 92.6396 2.53344C92.9889 3.30207 93.1522 4.16112 93.1294 5.11059L89.359 5.12189C89.3666 4.81294 89.359 4.49645 89.3362 4.17242C89.3134 3.84839 89.2185 3.57711 89.0514 3.35858C88.8919 3.13252 88.6072 3.01572 88.1971 3.00818C87.8706 3.00065 87.582 3.07977 87.3314 3.24555C87.0808 3.41133 86.8757 3.62986 86.7163 3.90114C86.5644 4.16488 86.4619 4.44747 86.4087 4.74889C86.3632 5.00509 86.3821 5.2387 86.4657 5.44969C86.5492 5.66068 86.6745 5.85284 86.8416 6.02616C87.0086 6.19947 87.1947 6.35395 87.3997 6.48959C87.6124 6.62523 87.8136 6.7458 88.0034 6.8513C88.6034 7.12258 89.1426 7.42776 89.621 7.76686C90.0994 8.10596 90.5057 8.49027 90.8398 8.9198C91.1815 9.34179 91.4321 9.82406 91.5916 10.3666C91.7587 10.9016 91.8194 11.512 91.7739 12.1978C91.7207 12.9664 91.5385 13.6483 91.2271 14.2436C90.9157 14.8314 90.5057 15.3288 89.9969 15.7357C89.4881 16.1351 88.9071 16.4365 88.2541 16.6399C87.601 16.8359 86.8985 16.9301 86.1467 16.9225C85.319 16.8999 84.5786 16.753 83.9255 16.4817C83.28 16.2029 82.737 15.8148 82.2966 15.3175C81.8561 14.8201 81.5258 14.2361 81.3055 13.5654C81.0853 12.8873 80.9828 12.145 80.998 11.3387L84.8254 11.35C84.8026 11.6816 84.795 12.0018 84.8026 12.3108C84.8102 12.6197 84.8595 12.8948 84.9507 13.1359C85.0418 13.3771 85.1975 13.5692 85.4177 13.7124C85.6455 13.848 85.9683 13.9158 86.3859 13.9158C86.7277 13.9158 87.0086 13.8405 87.2289 13.6898C87.4491 13.5315 87.62 13.3243 87.7415 13.0681C87.8706 12.8044 87.9579 12.5218 88.0034 12.2204Z"
          fill="#272525"/>
    <path d="M39.8592 19.3256L45.1674 19.3369C46.147 19.3595 46.9899 19.5705 47.6962 19.9699C48.41 20.3617 48.9454 20.9194 49.3023 21.6428C49.6592 22.3586 49.8035 23.2102 49.7351 24.1973C49.6744 25.0338 49.5149 25.7647 49.2567 26.3902C48.9985 27.0156 48.6226 27.5619 48.129 28.0291C47.643 28.4888 47.0279 28.8957 46.2837 29.2499L44.9168 29.9733H40.4059L40.9185 26.9101L43.789 26.944C44.2599 26.9289 44.6396 26.8121 44.9281 26.5936C45.2167 26.3675 45.4369 26.0774 45.5888 25.7233C45.7407 25.3616 45.8394 24.9735 45.885 24.559C45.9306 24.2802 45.9647 23.9788 45.9875 23.6548C46.0103 23.3232 45.9571 23.0406 45.828 22.807C45.6989 22.5659 45.4369 22.4302 45.0421 22.4001L43.1398 22.3888L40.7818 35.7832H37L39.8592 19.3256ZM44.1991 35.7832L42.6272 28.5039L46.4773 28.4813L48.2657 35.591V35.7832H44.1991Z"
          fill="#272525"/>
    <path d="M56.1943 19.3256L53.3238 35.7832H49.5192L52.4011 19.3256H56.1943Z" fill="#272525"/>
    <path d="M68.1211 26.9892L67.0731 33.8616C66.6099 34.374 66.0517 34.7885 65.3987 35.105C64.7456 35.4215 64.0621 35.6513 63.3483 35.7945C62.6344 35.9452 61.9396 36.013 61.2637 35.9979C60.2385 35.9829 59.3766 35.7832 58.678 35.3989C57.9869 35.007 57.4477 34.4795 57.0605 33.8164C56.6732 33.1458 56.4188 32.3884 56.2973 31.5445C56.1833 30.7005 56.1833 29.8264 56.2973 28.9221L56.7187 26.2093C56.8402 25.2598 57.0718 24.3556 57.4136 23.4965C57.7553 22.6375 58.1996 21.8726 58.7463 21.2019C59.3007 20.5313 59.9765 20.0076 60.7739 19.6308C61.5713 19.2465 62.4977 19.0656 63.5533 19.0882C64.738 19.1033 65.7024 19.3482 66.4466 19.8229C67.1984 20.2901 67.7452 20.942 68.0869 21.7784C68.4363 22.6149 68.6033 23.5945 68.5881 24.7173L64.943 24.6947C64.9658 24.2802 64.9582 23.8808 64.9202 23.4965C64.8823 23.1122 64.7532 22.7957 64.5329 22.547C64.3203 22.2908 63.9558 22.1514 63.4394 22.1288C62.8926 22.0987 62.4446 22.2117 62.0953 22.4679C61.7459 22.7166 61.465 23.0519 61.2523 23.4739C61.0473 23.8959 60.8916 24.348 60.7853 24.8303C60.6866 25.3126 60.6106 25.7609 60.5575 26.1754L60.1474 28.9334C60.1018 29.3102 60.0563 29.7284 60.0107 30.1881C59.9652 30.6402 59.9727 31.0772 60.0335 31.4992C60.0943 31.9137 60.2499 32.2566 60.5005 32.5278C60.7587 32.7991 61.1612 32.9385 61.708 32.9461C61.9434 32.9536 62.1408 32.9272 62.3003 32.8669C62.4674 32.8067 62.6306 32.7313 62.7901 32.6409C62.9496 32.5504 63.1281 32.4676 63.3255 32.3922L63.8609 29.7133H61.9358L62.4142 26.9892H68.1211Z"
          fill="#272525"/>
    <path d="M78.214 32.7313L77.6786 35.7832H70.6162L71.1629 32.7313H78.214ZM74.8308 19.3256L71.9489 35.7832H68.1671L71.0263 19.3256H74.8308ZM78.4987 25.8589L77.9861 28.8091H71.8464L72.3704 25.8589H78.4987ZM80.5947 19.3256L80.0593 22.3888H72.9513L73.4981 19.3256H80.5947Z"
          fill="#272525"/>
    <path d="M88.5119 32.7313L87.9765 35.7832H81.1875L81.7342 32.7313H88.5119ZM85.4135 19.3256L82.5316 35.7832H78.7498L81.6089 19.3256H85.4135Z"
          fill="#272525"/>
</svg>
