<svg width="188" height="30" viewBox="0 0 188 30" fill="none" xmlns="http://www.w3.org/2000/svg">
<path d="M9.10547 0.5625H14.2031L15.082 20.2891L22.8359 0.5625H28.2852L15.9414 29H11.625L9.10547 0.5625ZM5.76562 0.5625H11.2344L8.44141 22.6523L7.34766 29H0.84375L5.76562 0.5625ZM25.9414 0.5625H31.4492L26.5273 29H19.9648L21.1953 22.0859L25.9414 0.5625ZM41.2352 0.5625L36.3133 29H29.7898L34.7313 0.5625H41.2352ZM52.5055 21.2852C52.5966 20.7773 52.6031 20.3216 52.525 19.918C52.4469 19.5143 52.2906 19.1628 52.0563 18.8633C51.8349 18.5508 51.5419 18.2643 51.1773 18.0039C50.8258 17.7435 50.4352 17.5026 50.0055 17.2812C49.0549 16.8255 48.163 16.3177 47.3297 15.7578C46.4964 15.1849 45.7607 14.5404 45.1227 13.8242C44.4977 13.1081 44.0224 12.3008 43.6969 11.4023C43.3844 10.5039 43.2607 9.47526 43.3258 8.31641C43.4039 7.01432 43.7359 5.85547 44.3219 4.83984C44.9078 3.8112 45.676 2.95182 46.6266 2.26172C47.5771 1.55859 48.6383 1.03125 49.8102 0.679688C50.982 0.315104 52.1734 0.145833 53.3844 0.171875C55.1292 0.197917 56.594 0.601562 57.7789 1.38281C58.9638 2.16406 59.8557 3.21875 60.4547 4.54688C61.0536 5.875 61.3336 7.35938 61.2945 9L54.8297 9.01953C54.8427 8.48568 54.8297 7.9388 54.7906 7.37891C54.7516 6.81901 54.5888 6.35026 54.3023 5.97266C54.0289 5.58203 53.5406 5.38021 52.8375 5.36719C52.2776 5.35417 51.7828 5.49089 51.3531 5.77734C50.9234 6.0638 50.5719 6.44141 50.2984 6.91016C50.038 7.36589 49.8622 7.85417 49.7711 8.375C49.693 8.81771 49.7255 9.22135 49.8688 9.58594C50.012 9.95052 50.2268 10.2826 50.5133 10.582C50.7997 10.8815 51.1188 11.1484 51.4703 11.3828C51.8349 11.6172 52.1799 11.8255 52.5055 12.0078C53.5341 12.4766 54.4586 13.0039 55.2789 13.5898C56.0992 14.1758 56.7958 14.8398 57.3688 15.582C57.9547 16.3112 58.3844 17.1445 58.6578 18.082C58.9443 19.0065 59.0484 20.0612 58.9703 21.2461C58.8792 22.5742 58.5667 23.7526 58.0328 24.7812C57.499 25.7969 56.7958 26.6562 55.9234 27.3594C55.051 28.0495 54.0549 28.5703 52.9352 28.9219C51.8154 29.2604 50.6109 29.4232 49.3219 29.4102C47.9026 29.3711 46.6331 29.1172 45.5133 28.6484C44.4065 28.1667 43.4755 27.4961 42.7203 26.6367C41.9651 25.7773 41.3987 24.7682 41.0211 23.6094C40.6435 22.4375 40.4677 21.1549 40.4938 19.7617L47.0563 19.7812C47.0172 20.3542 47.0042 20.9076 47.0172 21.4414C47.0302 21.9753 47.1148 22.4505 47.2711 22.8672C47.4273 23.2839 47.6943 23.6159 48.0719 23.8633C48.4625 24.0977 49.0159 24.2148 49.732 24.2148C50.318 24.2148 50.7997 24.0846 51.1773 23.8242C51.5549 23.5508 51.8479 23.1927 52.0563 22.75C52.2776 22.2943 52.4273 21.806 52.5055 21.2852ZM71.9008 0.5625L66.9789 29H60.4555L65.3969 0.5625H71.9008ZM83.1711 21.2852C83.2622 20.7773 83.2688 20.3216 83.1906 19.918C83.1125 19.5143 82.9563 19.1628 82.7219 18.8633C82.5005 18.5508 82.2076 18.2643 81.843 18.0039C81.4914 17.7435 81.1008 17.5026 80.6711 17.2812C79.7206 16.8255 78.8286 16.3177 77.9953 15.7578C77.162 15.1849 76.4263 14.5404 75.7883 13.8242C75.1633 13.1081 74.688 12.3008 74.3625 11.4023C74.05 10.5039 73.9263 9.47526 73.9914 8.31641C74.0695 7.01432 74.4016 5.85547 74.9875 4.83984C75.5734 3.8112 76.3417 2.95182 77.2922 2.26172C78.2427 1.55859 79.3039 1.03125 80.4758 0.679688C81.6477 0.315104 82.8391 0.145833 84.05 0.171875C85.7948 0.197917 87.2596 0.601562 88.4445 1.38281C89.6294 2.16406 90.5214 3.21875 91.1203 4.54688C91.7193 5.875 91.9992 7.35938 91.9602 9L85.4953 9.01953C85.5083 8.48568 85.4953 7.9388 85.4563 7.37891C85.4172 6.81901 85.2544 6.35026 84.968 5.97266C84.6945 5.58203 84.2063 5.38021 83.5031 5.36719C82.9432 5.35417 82.4484 5.49089 82.0188 5.77734C81.5891 6.0638 81.2375 6.44141 80.9641 6.91016C80.7036 7.36589 80.5279 7.85417 80.4367 8.375C80.3586 8.81771 80.3911 9.22135 80.5344 9.58594C80.6776 9.95052 80.8925 10.2826 81.1789 10.582C81.4654 10.8815 81.7844 11.1484 82.1359 11.3828C82.5005 11.6172 82.8456 11.8255 83.1711 12.0078C84.1997 12.4766 85.1242 13.0039 85.9445 13.5898C86.7648 14.1758 87.4615 14.8398 88.0344 15.582C88.6203 16.3112 89.05 17.1445 89.3234 18.082C89.6099 19.0065 89.7141 20.0612 89.6359 21.2461C89.5448 22.5742 89.2323 23.7526 88.6984 24.7812C88.1646 25.7969 87.4615 26.6562 86.5891 27.3594C85.7167 28.0495 84.7206 28.5703 83.6008 28.9219C82.481 29.2604 81.2766 29.4232 79.9875 29.4102C78.5682 29.3711 77.2987 29.1172 76.1789 28.6484C75.0721 28.1667 74.1411 27.4961 73.3859 26.6367C72.6307 25.7773 72.0643 24.7682 71.6867 23.6094C71.3091 22.4375 71.1333 21.1549 71.1594 19.7617L77.7219 19.7812C77.6828 20.3542 77.6698 20.9076 77.6828 21.4414C77.6958 21.9753 77.7805 22.4505 77.9367 22.8672C78.093 23.2839 78.3599 23.6159 78.7375 23.8633C79.1281 24.0977 79.6815 24.2148 80.3977 24.2148C80.9836 24.2148 81.4654 24.0846 81.843 23.8242C82.2206 23.5508 82.5135 23.1927 82.7219 22.75C82.9432 22.2943 83.093 21.806 83.1711 21.2852ZM104.091 0.5625L113.192 0.582031C114.872 0.621094 116.317 0.985677 117.528 1.67578C118.752 2.35286 119.67 3.31641 120.282 4.56641C120.894 5.80339 121.141 7.27474 121.024 8.98047C120.92 10.4258 120.647 11.6888 120.204 12.7695C119.761 13.8503 119.117 14.7943 118.27 15.6016C117.437 16.3958 116.382 17.099 115.106 17.7109L112.762 18.9609H105.028L105.907 13.668L110.829 13.7266C111.636 13.7005 112.287 13.4987 112.782 13.1211C113.277 12.7305 113.654 12.2292 113.915 11.6172C114.175 10.9922 114.345 10.3216 114.423 9.60547C114.501 9.1237 114.559 8.60286 114.598 8.04297C114.637 7.47005 114.546 6.98177 114.325 6.57812C114.104 6.16146 113.654 5.92708 112.977 5.875L109.716 5.85547L105.673 29H99.1883L104.091 0.5625ZM111.532 29L108.837 16.4219L115.438 16.3828L118.505 28.668V29H111.532ZM132.099 0.5625L127.177 29H120.654L125.595 0.5625H132.099ZM152.549 13.8047L150.752 25.6797C149.958 26.5651 149.001 27.2812 147.881 27.8281C146.761 28.375 145.59 28.7721 144.366 29.0195C143.142 29.2799 141.95 29.3971 140.791 29.3711C139.034 29.3451 137.556 29 136.358 28.3359C135.173 27.6589 134.248 26.7474 133.584 25.6016C132.92 24.4427 132.484 23.1341 132.276 21.6758C132.08 20.2174 132.08 18.707 132.276 17.1445L132.998 12.457C133.207 10.8164 133.604 9.25391 134.19 7.76953C134.776 6.28516 135.538 4.96354 136.475 3.80469C137.426 2.64583 138.584 1.74089 139.952 1.08984C141.319 0.425781 142.907 0.113281 144.717 0.152344C146.748 0.178385 148.402 0.601562 149.678 1.42188C150.967 2.22917 151.905 3.35547 152.491 4.80078C153.09 6.24609 153.376 7.9388 153.35 9.87891L147.1 9.83984C147.139 9.1237 147.126 8.43359 147.061 7.76953C146.996 7.10547 146.774 6.55859 146.397 6.12891C146.032 5.6862 145.407 5.44531 144.522 5.40625C143.584 5.35417 142.816 5.54948 142.217 5.99219C141.618 6.42188 141.136 7.0013 140.772 7.73047C140.42 8.45964 140.153 9.24089 139.971 10.0742C139.802 10.9076 139.672 11.6823 139.58 12.3984L138.877 17.1641C138.799 17.8151 138.721 18.5378 138.643 19.332C138.565 20.1133 138.578 20.8685 138.682 21.5977C138.786 22.3138 139.053 22.9062 139.483 23.375C139.926 23.8438 140.616 24.0846 141.553 24.0977C141.957 24.1107 142.295 24.0651 142.569 23.9609C142.855 23.8568 143.135 23.7266 143.409 23.5703C143.682 23.4141 143.988 23.2708 144.327 23.1406L145.245 18.5117H141.944L142.764 13.8047H152.549ZM169.855 23.7266L168.937 29H156.827L157.765 23.7266H169.855ZM164.054 0.5625L159.113 29H152.628L157.53 0.5625H164.054ZM170.343 11.8516L169.464 16.9492H158.937L159.835 11.8516H170.343ZM173.937 0.5625L173.019 5.85547H160.831L161.769 0.5625H173.937ZM187.512 23.7266L186.594 29H174.953L175.891 23.7266H187.512ZM182.199 0.5625L177.258 29H170.773L175.676 0.5625H182.199Z" fill="#32323A"/>
</svg>
