<svg width="90" height="30" viewBox="0 0 90 30" fill="none" xmlns="http://www.w3.org/2000/svg">
<path d="M5.76562 0.5625L14.8672 0.582031C16.5469 0.621094 17.9922 0.985677 19.2031 1.67578C20.4271 2.35286 21.3451 3.31641 21.957 4.56641C22.569 5.80339 22.8164 7.27474 22.6992 8.98047C22.5951 10.4258 22.3216 11.6888 21.8789 12.7695C21.4362 13.8503 20.7917 14.7943 19.9453 15.6016C19.112 16.3958 18.0573 17.099 16.7812 17.7109L14.4375 18.9609H6.70312L7.58203 13.668L12.5039 13.7266C13.3112 13.7005 13.9622 13.4987 14.457 13.1211C14.9518 12.7305 15.3294 12.2292 15.5898 11.6172C15.8503 10.9922 16.0195 10.3216 16.0977 9.60547C16.1758 9.1237 16.2344 8.60286 16.2734 8.04297C16.3125 7.47005 16.2214 6.98177 16 6.57812C15.7786 6.16146 15.3294 5.92708 14.6523 5.875L11.3906 5.85547L7.34766 29H0.863281L5.76562 0.5625ZM13.207 29L10.5117 16.4219L17.1133 16.3828L20.1797 28.668V29H13.207ZM33.7742 0.5625L28.8523 29H22.3289L27.2703 0.5625H33.7742ZM54.2242 13.8047L52.4273 25.6797C51.6331 26.5651 50.676 27.2812 49.5562 27.8281C48.4365 28.375 47.2646 28.7721 46.0406 29.0195C44.8167 29.2799 43.6253 29.3971 42.4664 29.3711C40.7086 29.3451 39.2307 29 38.0328 28.3359C36.8479 27.6589 35.9234 26.7474 35.2594 25.6016C34.5953 24.4427 34.1591 23.1341 33.9508 21.6758C33.7555 20.2174 33.7555 18.707 33.9508 17.1445L34.6734 12.457C34.8818 10.8164 35.2789 9.25391 35.8648 7.76953C36.4508 6.28516 37.2125 4.96354 38.15 3.80469C39.1005 2.64583 40.2594 1.74089 41.6266 1.08984C42.9937 0.425781 44.5823 0.113281 46.3922 0.152344C48.4234 0.178385 50.0771 0.601562 51.3531 1.42188C52.6422 2.22917 53.5797 3.35547 54.1656 4.80078C54.7646 6.24609 55.051 7.9388 55.025 9.87891L48.775 9.83984C48.8141 9.1237 48.801 8.43359 48.7359 7.76953C48.6708 7.10547 48.4495 6.55859 48.0719 6.12891C47.7073 5.6862 47.0823 5.44531 46.1969 5.40625C45.2594 5.35417 44.4911 5.54948 43.8922 5.99219C43.2932 6.42188 42.8115 7.0013 42.4469 7.73047C42.0953 8.45964 41.8284 9.24089 41.6461 10.0742C41.4768 10.9076 41.3466 11.6823 41.2555 12.3984L40.5523 17.1641C40.4742 17.8151 40.3961 18.5378 40.318 19.332C40.2398 20.1133 40.2529 20.8685 40.357 21.5977C40.4612 22.3138 40.7281 22.9062 41.1578 23.375C41.6005 23.8438 42.2906 24.0846 43.2281 24.0977C43.6318 24.1107 43.9703 24.0651 44.2437 23.9609C44.5302 23.8568 44.8102 23.7266 45.0836 23.5703C45.357 23.4141 45.663 23.2708 46.0016 23.1406L46.9195 18.5117H43.6187L44.4391 13.8047H54.2242ZM71.5297 23.7266L70.6117 29H58.5023L59.4398 23.7266H71.5297ZM65.7289 0.5625L60.7875 29H54.3031L59.2055 0.5625H65.7289ZM72.018 11.8516L71.1391 16.9492H60.6117L61.5102 11.8516H72.018ZM75.6117 0.5625L74.6937 5.85547H62.5062L63.4437 0.5625H75.6117ZM89.1867 23.7266L88.2688 29H76.6281L77.5656 23.7266H89.1867ZM83.8742 0.5625L78.9328 29H72.4484L77.3508 0.5625H83.8742Z" fill="#32323A"/>
</svg>
