<svg width="42" height="38" viewBox="0 0 42 38" fill="none" xmlns="http://www.w3.org/2000/svg">
    <path d="M21.0186 4.94629C11.6613 4.94629 3.67023 10.7665 0.432617 18.9822C3.67023 27.1978 11.6613 33.0181 21.0186 33.0181C30.3758 33.0181 38.3669 27.1978 41.6045 18.9822C38.3669 10.7665 30.3758 4.94629 21.0186 4.94629ZM21.0186 28.3394C15.8534 28.3394 11.6613 24.1474 11.6613 18.9822C11.6613 13.817 15.8534 9.62492 21.0186 9.62492C26.1838 9.62492 30.3758 13.817 30.3758 18.9822C30.3758 24.1474 26.1838 28.3394 21.0186 28.3394ZM21.0186 13.3678C17.912 13.3678 15.4042 15.8756 15.4042 18.9822C15.4042 22.0888 17.912 24.5965 21.0186 24.5965C24.1252 24.5965 26.6329 22.0888 26.6329 18.9822C26.6329 15.8756 24.1252 13.3678 21.0186 13.3678Z"
          fill="#EBEAE9"/>
</svg>
