<svg xmlns:xlink="http://www.w3.org/1999/xlink" xmlns="http://www.w3.org/2000/svg" viewBox="0 0 24 24" width="24"  height="24" ><g clip-path="url(#clip0_12213_8109)" fill="#FFFFFF"><path d="M.405 14.52A.965.965 0 011.193 13c.497 0 .755.239 1.02.614.303.428.56.79.787 1.097 0-1.596 0-3.2.08-4.789.195-2.616.293-3.924 1.605-5.237 1.313-1.313 2.621-1.41 5.237-1.605C10.6 3.03 11.3 3 12 3c.7 0 1.4.03 2.078.08 2.616.195 3.924.292 5.237 1.605 1.312 1.313 1.41 2.621 1.605 5.237.05.678.08 1.378.08 2.077 0 .7-.03 1.4-.08 2.078-.195 2.616-.292 3.924-1.605 5.237-.19.19-.379.353-.572.496-1.146.851-2.426.961-4.665 1.128-.355.026-.715.047-1.078.061a.955.955 0 01-.194-.012c-.268.008-.536.013-.805.013-.7 0-1.399-.03-2.077-.081-1.475-.11-2.535-.189-3.413-.472a1 1 0 11.566-1.917c.565.19 1.408.276 2.995.394.638.048 1.287.076 1.929.076.642 0 1.292-.028 1.929-.076 2.349-.174 3.067-.283 3.667-.75a3.47 3.47 0 00.303-.275c.706-.706.82-1.22 1.025-3.971.047-.637.076-1.287.076-1.929 0-.642-.029-1.291-.076-1.929-.205-2.75-.319-3.264-1.025-3.97-.706-.707-1.22-.82-3.97-1.025a26.112 26.112 0 00-1.93-.076c-.642 0-1.291.028-1.928.076-2.75.204-3.265.318-3.971 1.024-.706.707-.82 1.221-1.025 3.971C5 11.588 5 13.164 5 14.71c.225-.306.483-.668.786-1.096.265-.375.523-.615 1.02-.615.782 0 1.24.882.788 1.521l-.003.005C5.957 16.84 5.139 18 4 18 2.86 18 2.042 16.84.408 14.525l-.003-.005z" fill="#FFFFFF"></path><path d="M11 8v3.957a.998.998 0 00.292.751l1.999 1.999a1 1 0 001.414-1.414L13 11.588V8a1 1 0 10-2 0z" fill="#FFFFFF"></path></g><defs><clipPath id="clip0_12213_8109"><path d="M0 0h24v24H0z"></path></clipPath></defs></svg>