<svg xmlns:xlink="http://www.w3.org/1999/xlink" xmlns="http://www.w3.org/2000/svg" viewBox="0 0 24 24" width="24"  height="24" ><g fill-rule="evenodd" clip-rule="evenodd" fill="#FFFFFF"><path d="M16 13a4 4 0 11-8 0 4 4 0 018 0zm-2 0a2 2 0 11-4 0 2 2 0 014 0z" fill="#FFFFFF"></path><path d="M2.06 15.153c.142 1.882.212 2.824 1.514 4.133 1.302 1.31 2.325 1.392 4.371 1.558a50.26 50.26 0 004.054.156c1.549 0 2.9-.063 4.053-.156 2.047-.166 3.07-.249 4.372-1.558 1.302-1.31 1.373-2.251 1.514-4.135a21.593 21.593 0 000-3.234c-.141-1.883-.212-2.825-1.514-4.134-.967-.973-1.78-1.269-2.973-1.424-.08-.598-.291-1.107-.855-1.797a6.366 6.366 0 00-.328-.355c-1.028-.988-1.75-1.046-3.194-1.162A13.422 13.422 0 0012 3c-.383 0-.768.019-1.145.05-1.302.11-1.953.165-2.924.98a6.086 6.086 0 00-.698.76c-.428.607-.605 1.06-.679 1.568-1.196.155-2.01.45-2.98 1.425-1.302 1.31-1.372 2.25-1.514 4.132a21.608 21.608 0 000 3.238zm13.61-7.01l1.522.199c.498.065.782.143 1.003.243.21.095.46.255.811.608.473.475.618.77.701 1.038.116.371.161.827.237 1.836a19.618 19.618 0 010 2.935c-.076 1.009-.12 1.464-.237 1.836-.083.268-.228.562-.701 1.038-.452.455-.755.608-1.07.704-.426.13-.954.182-2.045.27-1.1.09-2.397.15-3.892.15s-2.793-.06-3.892-.15c-1.09-.088-1.62-.14-2.044-.27-.315-.095-.618-.25-1.07-.704-.473-.476-.618-.77-.702-1.038-.116-.371-.16-.826-.236-1.835a19.607 19.607 0 010-2.938c.075-1.008.12-1.463.236-1.834.084-.269.229-.563.702-1.038.35-.353.602-.513.812-.608.221-.1.507-.179 1.007-.244l1.504-.195.218-1.502c.02-.138.05-.298.325-.69l.04-.048a5.344 5.344 0 01.284-.31l.045-.043c.305-.254.466-.318.597-.356.218-.063.49-.094 1.198-.153.33-.028.658-.044.977-.044.3 0 .606.014.913.039.787.063 1.086.097 1.32.17.135.042.31.115.644.434l.02.02a5.01 5.01 0 01.137.15l.02.021c.203.251.292.406.335.5a.92.92 0 01.079.288l.202 1.521z" fill="#FFFFFF"></path></g></svg>