<svg xmlns:xlink="http://www.w3.org/1999/xlink" xmlns="http://www.w3.org/2000/svg" viewBox="0 0 24 24" width="24"  height="24" ><g fill="#FFFFFF"><path fill-rule="evenodd" clip-rule="evenodd" d="M10.756 19c-4.393 0-6.607-.03-7.46-1.484-.557-.95-.3-2.104.541-3.854.449-.932.673-1.398.776-1.684l.013-.036c.051-.14.077-.21.098-.282.021-.072.039-.144.073-.29l.01-.037c.07-.296.161-.975.343-2.333.16-1.194.418-2.203.68-3 .504-1.528 1.272-2.667 2.779-3.324C9.454 2.31 10.585 2 12.002 2c1.418 0 2.549.309 3.393.676 1.507.657 2.275 1.796 2.778 3.324.263.797.522 1.806.681 3 .183 1.365.274 2.047.346 2.345l.01.04c.033.14.05.212.07.281.022.07.046.139.096.276l.013.038c.104.287.33.757.78 1.696.837 1.742 1.09 2.894.535 3.84-.853 1.454-3.065 1.483-7.455 1.484h-2.493zm2.492-2h-2.49c-2.259 0-3.73-.013-4.75-.173-.49-.076-.747-.17-.877-.238-.089-.046-.102-.07-.109-.082l-.001-.003a.107.107 0 01-.017-.047.86.86 0 01.013-.253c.053-.335.226-.851.623-1.675l.074-.155c.378-.785.641-1.331.78-1.716l.017-.045c.044-.123.09-.25.13-.38.038-.13.07-.261.1-.388l.01-.047c.096-.398.197-1.153.35-2.294l.031-.24c.142-1.059.37-1.946.598-2.638.392-1.189.86-1.76 1.678-2.116.615-.268 1.476-.51 2.594-.51 1.119 0 1.979.242 2.595.51.817.356 1.285.927 1.677 2.116.228.692.456 1.58.598 2.639l.032.24c.153 1.146.255 1.906.35 2.306l.012.047c.03.124.06.254.099.381.037.127.083.252.126.372l.017.046c.139.387.404.938.784 1.729l.075.156c.393.82.564 1.332.616 1.664.024.15.017.226.013.252a.106.106 0 01-.017.046l-.001.003c-.007.012-.02.036-.109.082-.13.068-.387.162-.875.238-1.02.16-2.49.173-4.746.173z" fill="#FFFFFF"></path><path d="M11 20a1 1 0 100 2h2a1 1 0 100-2h-2z" fill="#FFFFFF"></path></g></svg>