<svg xmlns:xlink="http://www.w3.org/1999/xlink" xmlns="http://www.w3.org/2000/svg" viewBox="0 0 24 24" width="24"  height="24" ><path fill-rule="evenodd" clip-rule="evenodd" d="M4.167 16.056A46.938 46.938 0 014 12.001c0-1.55.067-2.901.167-4.054.176-2.025.264-3.038 1.558-4.327C7.019 2.33 7.99 2.25 9.93 2.088a24.959 24.959 0 014.137 0c1.941.161 2.912.242 4.206 1.532 1.294 1.289 1.382 2.302 1.558 4.327.1 1.152.168 2.505.168 4.054 0 1.55-.068 2.903-.168 4.056-.176 2.024-.264 3.036-1.558 4.325-1.293 1.29-2.264 1.37-4.204 1.532a24.957 24.957 0 01-4.14 0c-1.941-.162-2.912-.242-4.205-1.532-1.294-1.29-1.382-2.301-1.558-4.326zm1.993-.173A44.944 44.944 0 016 12.001c0-1.491.065-2.785.16-3.881.093-1.08.148-1.603.278-2.024.096-.312.25-.612.699-1.06.459-.457.755-.606 1.043-.696.394-.122.88-.173 1.917-.26a22.965 22.965 0 013.805 0c1.038.087 1.523.138 1.917.26.288.09.584.239 1.043.696.45.448.603.748.7 1.06.129.421.184.945.277 2.024.096 1.095.16 2.39.16 3.881 0 1.492-.064 2.787-.16 3.883-.093 1.078-.148 1.601-.278 2.022-.096.312-.25.612-.698 1.06-.46.457-.755.606-1.043.696-.394.122-.88.173-1.916.26a22.964 22.964 0 01-3.809 0c-1.036-.087-1.522-.138-1.915-.26-.288-.09-.584-.239-1.044-.696-.449-.448-.602-.748-.698-1.06-.13-.421-.185-.944-.278-2.023zM14 11a1 1 0 100-2h-4a1 1 0 100 2h4zm-1 4a1 1 0 100-2h-2a1 1 0 100 2h2zM2.475 6.015a1 1 0 01.81 1.158l-.002.011a5.109 5.109 0 00-.039.265c-.026.196-.062.496-.098.9A41.255 41.255 0 003 12c0 1.624.074 2.844.146 3.651a21.025 21.025 0 00.137 1.165l.002.01a1 1 0 11-1.97.348v-.003l-.001-.006-.004-.02a6.716 6.716 0 01-.048-.328c-.03-.225-.07-.554-.108-.987A43.23 43.23 0 011 12c0-1.684.076-2.964.154-3.83a22.997 22.997 0 01.145-1.245l.011-.07.004-.02V6.83l.001-.002v-.002a1 1 0 011.16-.81zm18.24 1.159a1 1 0 011.97-.348v.003l.001.007.004.02.011.07a22.847 22.847 0 01.145 1.245c.078.865.154 2.145.154 3.83 0 1.684-.076 2.963-.154 3.83a22.847 22.847 0 01-.145 1.244l-.011.07-.004.02v.006l-.001.002v.001a1 1 0 01-1.97-.348l.002-.01.004-.025.004-.024a21.075 21.075 0 00.13-1.116c.071-.807.145-2.027.145-3.65 0-1.625-.074-2.845-.146-3.652a21.064 21.064 0 00-.13-1.116 1.274 1.274 0 00-.008-.049v-.01z" fill="#FFFFFF"></path></svg>