<svg xmlns:xlink="http://www.w3.org/1999/xlink" xmlns="http://www.w3.org/2000/svg" viewBox="0 0 24 24" width="24"  height="24" ><path fill-rule="evenodd" clip-rule="evenodd" d="M17.452 2.489c.34.295.508.826.26 1.321L14.619 10h2.188c.862 0 1.437.985.894 1.74-.471.655-2.418 3.328-3.979 4.953-1.811 1.885-4.83 4.157-5.801 4.873a1.098 1.098 0 01-1.632-1.377L9.381 14H7.194c-.862 0-1.437-.984-.894-1.74.471-.654 2.418-3.327 3.979-4.952 1.811-1.885 4.83-4.157 5.802-4.873a1.094 1.094 0 011.371.055zm-3.317 4.005c-.865.721-1.738 1.495-2.414 2.199-.895.932-1.951 2.266-2.741 3.307h1.858c.818 0 1.35.86.984 1.592l-1.957 3.914c.865-.721 1.738-1.495 2.414-2.199.895-.932 1.951-2.266 2.741-3.307h-1.858a1.1 1.1 0 01-.984-1.592l1.957-3.914z" fill="#FFFFFF"></path></svg>