<svg xmlns="http://www.w3.org/2000/svg" viewBox="0 0 24 24" width="24"
     height="24">
    <g fill="#FFFFFF">
        <path d="M10.783 13.93a10.65 10.65 0 002.395.005c.241-.026.403-.044.539-.064l.13-.022c.008-.037.017-.089.027-.16.02-.144.038-.314.064-.564.038-.368.062-.751.062-1.124a1 1 0 112 0c0 .456-.03.909-.073 1.33-.099.959-.149 1.438-.647 1.94-.498.5-.96.551-1.885.652a12.652 12.652 0 01-2.841-.007c-.872-.1-1.308-.15-1.8-.637-.49-.487-.546-.937-.659-1.836A11.773 11.773 0 018 12.001a1 1 0 112 0c0 .396.031.804.08 1.195.03.235.05.392.07.523l.024.13.106.017c.125.02.275.037.503.064z"
              fill="#FFFFFF"></path>
        <path fill-rule="evenodd" clip-rule="evenodd"
              d="M15.927 4.672c.044.42.073.873.073 1.329h2.74a1 1 0 011 1h.005c.03.29.058.604.087.946C19.932 9.1 20 10.452 20 12c0 1.55-.068 2.903-.168 4.056-.175 2.024-.263 3.036-1.557 4.325-1.294 1.29-2.264 1.37-4.205 1.532a24.956 24.956 0 01-4.14 0c-1.94-.161-2.911-.242-4.205-1.532-1.294-1.289-1.381-2.301-1.557-4.325A46.94 46.94 0 014 12a46.945 46.945 0 01.255-5h.003a1 1 0 011-1H8c0-.497.04-.99.095-1.442.113-.9.169-1.349.66-1.836.491-.487.927-.537 1.799-.638a12.645 12.645 0 012.841-.006c.925.1 1.387.151 1.885.653.498.5.548.98.647 1.94zm-5.144-.6a10.646 10.646 0 012.395-.005c.241.026.403.044.539.064l.13.022c.008.037.017.089.027.16.02.144.038.314.064.564.038.369.062.75.062 1.124h-4c0-.396.031-.804.08-1.195.03-.235.05-.392.07-.523l.024-.13.106-.017c.125-.02.275-.037.503-.064zM6.171 8.001l-.01.12A44.95 44.95 0 006 12c0 1.492.065 2.787.16 3.883.094 1.078.149 1.601.278 2.022.097.312.25.612.699 1.06.46.458.755.606 1.043.696.394.123.879.173 1.916.26a22.958 22.958 0 003.808 0c1.037-.087 1.523-.137 1.916-.26.288-.09.584-.238 1.043-.696.45-.448.602-.748.699-1.06.13-.42.184-.944.278-2.022.095-1.096.16-2.391.16-3.883 0-1.49-.065-2.785-.16-3.881L17.83 8H6.17z"
              fill="#FFFFFF"></path>
        <path fill-rule="evenodd" clip-rule="evenodd"
              d="M12 14.001c-.436 0-.847-.028-1.217-.071a14.116 14.116 0 01-.503-.064 2.726 2.726 0 01-.106-.018 2.744 2.744 0 01-.023-.129 14.991 14.991 0 01-.07-.523A9.774 9.774 0 0110 12a1 1 0 00-2 0c0 .497.04.99.095 1.442.113.9.169 1.349.66 1.836.491.487.927.537 1.799.638a12.652 12.652 0 002.841.006c.925-.1 1.387-.152 1.885-.653s.548-.98.647-1.94c.044-.42.073-.873.073-1.329a1 1 0 00-2 0c0 .373-.024.756-.062 1.124-.026.25-.044.42-.064.564-.01.071-.02.123-.026.16a2.932 2.932 0 01-.131.022c-.136.02-.298.038-.54.064-.363.04-.76.066-1.177.066z"
              fill="#FFFFFF"></path>
    </g>
</svg>