<svg xmlns:xlink="http://www.w3.org/1999/xlink" xmlns="http://www.w3.org/2000/svg" viewBox="0 0 24 24" width="24"  height="24" ><g fill-rule="evenodd" clip-rule="evenodd" clip-path="url(#clip0_12213_8270)" fill="#FFFFFF"><path d="M14.976 12.66c-.056.785-.084 1.177-.611 1.705-.528.528-.92.556-1.705.611a9.315 9.315 0 01-1.32 0c-.785-.056-1.177-.083-1.705-.611s-.556-.92-.611-1.705a9.312 9.312 0 010-1.32c.056-.785.083-1.177.611-1.705s.92-.555 1.705-.611a9.31 9.31 0 011.32 0c.785.056 1.177.083 1.705.611.527.528.555.92.611 1.705a9.315 9.315 0 010 1.32zm-2.458.321a7.319 7.319 0 01-1.036 0 9.486 9.486 0 01-.426-.035h-.002v-.002A9.486 9.486 0 0111 12a9.513 9.513 0 01.054-.944v-.002h.002A9.486 9.486 0 0112 11a9.513 9.513 0 01.944.054h.002v.002A9.513 9.513 0 0113 12a9.486 9.486 0 01-.054.944v.002h-.002c-.097.011-.216.02-.426.035z" fill="#FFFFFF"></path><path d="M12.699 21H11.3c-.343 0-.689 0-.981-.038-.34-.044-.712-.149-1.05-.433-.331-.28-.5-.622-.6-.948a7.186 7.186 0 01-.191-.887 7.578 7.578 0 01-.515-.298 7.17 7.17 0 01-.863.278c-.333.075-.713.1-1.121-.047-.415-.15-.693-.42-.9-.692-.18-.234-.352-.534-.523-.83l-.7-1.212c-.171-.297-.344-.596-.458-.868-.131-.316-.226-.692-.149-1.126.077-.427.289-.743.52-.994.188-.203.432-.409.674-.61a7.669 7.669 0 010-.59 7.202 7.202 0 01-.675-.61c-.232-.252-.444-.568-.52-.995-.078-.434.017-.81.149-1.126a8.05 8.05 0 01.458-.868l.7-1.212c.17-.297.343-.596.522-.83.208-.272.486-.543.9-.693.409-.147.789-.122 1.122-.047.27.061.57.17.865.28.167-.106.338-.205.514-.297.053-.31.108-.624.19-.888.102-.326.27-.668.602-.948.337-.284.71-.39 1.049-.433C10.613 3 10.958 3 11.3 3h1.398c.343 0 .688 0 .981.038.34.044.712.149 1.05.433.331.28.499.622.6.948.083.264.138.578.191.888.176.092.347.191.514.297.294-.109.593-.218.863-.279.333-.075.713-.1 1.121.047.415.15.693.42.9.692.18.235.352.534.523.831l.7 1.211c.171.297.344.597.458.869.131.316.226.691.149 1.125-.077.428-.289.744-.52.995a7.17 7.17 0 01-.673.608 7.701 7.701 0 010 .592c.242.202.488.407.676.611.231.251.443.567.52.995.077.434-.018.81-.15 1.125-.113.273-.286.572-.457.869l-.7 1.211a8.048 8.048 0 01-.523.831c-.208.272-.486.542-.9.692-.409.147-.788.122-1.121.047-.27-.06-.571-.17-.866-.28a7.547 7.547 0 01-.514.298c-.053.31-.108.623-.19.887-.102.326-.27.668-.602.948-.337.284-.71.39-1.05.433a8.049 8.049 0 01-.98.038zm.867-2.738c-.066.385-.102.583-.143.717-.148.019-.361.021-.772.021h-1.302c-.411 0-.624-.002-.773-.021-.04-.134-.076-.332-.142-.717l-.024-.14a1.527 1.527 0 00-.84-1.117 5.556 5.556 0 01-.686-.397 1.526 1.526 0 00-1.39-.17l-.133.049c-.366.135-.555.202-.692.234-.09-.119-.199-.302-.404-.658l-.652-1.128c-.205-.356-.31-.542-.368-.68.096-.102.25-.232.55-.482l.11-.09c.395-.326.58-.814.547-1.286a5.656 5.656 0 010-.793 1.526 1.526 0 00-.547-1.286l-.112-.092c-.3-.25-.453-.38-.549-.483.058-.138.162-.323.368-.679l.651-1.128c.206-.356.314-.54.405-.659.136.032.325.1.692.235l.135.05c.48.18.997.096 1.39-.17.217-.148.446-.28.684-.396.426-.207.756-.612.841-1.117l.024-.141c.066-.385.102-.583.143-.717.148-.019.36-.021.772-.021h1.302c.41 0 .624.002.772.021.041.134.077.332.143.717l.024.14c.085.506.415.91.84 1.118.239.116.467.249.685.396.393.266.909.35 1.39.17l.133-.049c.366-.135.555-.203.692-.234.09.118.199.302.404.658l.652 1.128c.205.356.31.541.368.68-.096.102-.249.232-.55.481l-.11.09c-.394.327-.58.814-.546 1.287a5.68 5.68 0 010 .793c-.033.473.152.96.547 1.286l.112.093c.3.25.454.38.55.482-.058.138-.163.323-.368.68l-.652 1.128c-.205.356-.314.54-.405.658-.136-.031-.325-.1-.692-.235l-.135-.05a1.526 1.526 0 00-1.39.17 5.55 5.55 0 01-.685.397 1.526 1.526 0 00-.84 1.117l-.024.14z" fill="#FFFFFF"></path></g><defs><clipPath id="clip0_12213_8270"><path d="M0 0h24v24H0z"></path></clipPath></defs></svg>