<svg xmlns="http://www.w3.org/2000/svg" viewBox="0 0 24 24" width="24"
     height="24">
    <g fill="#BA9D5A">
        <path d="M15 11a1 1 0 100-2h-2V7a1 1 0 10-2 0v2H9a1 1 0 100 2h2v2a1 1 0 102 0v-2h2z" fill="#BA9D5A"></path>
        <path fill-rule="evenodd" clip-rule="evenodd"
              d="M4.042 14.99C4.016 14.042 4 13.033 4 11.98c0-1.547.068-2.896.168-4.046.175-2.021.263-3.032 1.557-4.319C7.02 2.33 7.99 2.248 9.932 2.087a25.015 25.015 0 014.136 0c1.942.161 2.913.242 4.207 1.528 1.294 1.287 1.382 2.298 1.557 4.319.1 1.15.168 2.5.168 4.045 0 1.054-.016 2.063-.041 3.01-.072 2.628-.108 3.942-.801 5.076-.976 1.597-2.583 2.594-4.29 1.401-1.387-.968-2.08-1.452-2.868-1.452-.788 0-1.481.484-2.867 1.452-1.69 1.18-3.273.265-4.291-1.4-.693-1.135-.729-2.449-.8-5.076zm1.999-.055C6.015 14.005 6 13.013 6 11.98c0-1.487.065-2.779.16-3.872.094-1.077.149-1.598.278-2.018.096-.31.249-.609.698-1.055.459-.457.754-.605 1.043-.695.395-.123.88-.173 1.918-.26a23.014 23.014 0 013.806 0c1.037.087 1.524.137 1.918.26.289.09.584.238 1.043.695.45.446.602.745.698 1.055.13.42.184.94.278 2.018.095 1.093.16 2.385.16 3.873 0 1.033-.015 2.024-.04 2.955-.078 2.84-.157 3.512-.509 4.088-.354.58-.71.852-.917.936a.328.328 0 01-.172.03c-.04-.004-.155-.026-.35-.162l-.073-.052c-.63-.44-1.23-.858-1.774-1.155-.61-.332-1.317-.606-2.165-.606-.848 0-1.555.274-2.165.606-.545.296-1.145.716-1.774 1.155l-.074.052c-.2.14-.319.165-.361.17a.291.291 0 01-.157-.024c-.186-.074-.542-.332-.92-.95-.352-.576-.43-1.248-.508-4.088z"
              fill="#BA9D5A"></path>
    </g>
</svg>